<svg id="svg" xmlns="http://www.w3.org/2000/svg" xmlns:xlink="http://www.w3.org/1999/xlink" width="400" height="200" viewBox="100, 120, 200, 180"><g id="svgg"><path id="path0" d="M257.055 221.402 C 256.661 221.796,255.872 222.026,255.098 221.973 C 252.024 221.762,251.600 221.912,251.600 223.213 C 251.600 223.921,251.849 224.521,252.200 224.655 C 252.711 224.851,252.800 226.361,252.800 234.843 C 252.800 243.427,252.717 244.800,252.200 244.800 C 251.799 244.800,251.600 245.201,251.600 246.013 L 251.600 247.226 256.100 247.113 C 260.466 247.003,260.604 246.972,260.732 246.071 C 260.826 245.403,260.629 245.081,260.032 244.924 C 258.753 244.590,258.722 225.018,260.000 224.684 C 260.949 224.436,261.102 222.645,260.248 221.791 C 259.315 220.858,257.785 220.672,257.055 221.402 M308.800 221.400 C 308.800 221.804,308.396 222.000,307.563 222.000 C 306.662 222.000,306.268 222.217,306.116 222.800 C 306.001 223.240,305.658 223.600,305.353 223.600 C 305.049 223.600,304.800 223.870,304.800 224.200 C 304.800 224.530,304.530 224.800,304.200 224.800 C 303.684 224.800,303.600 226.089,303.600 234.000 C 303.600 241.911,303.684 243.200,304.200 243.200 C 304.599 243.200,304.800 243.599,304.800 244.392 C 304.800 245.325,305.014 245.638,305.784 245.832 C 306.325 245.967,306.977 246.331,307.233 246.639 C 307.939 247.491,318.000 247.454,318.000 246.600 C 318.000 246.200,318.400 246.000,319.200 246.000 C 319.939 246.000,320.400 245.793,320.400 245.461 C 320.400 245.165,320.760 244.507,321.200 244.000 C 321.758 243.357,322.000 242.503,322.000 241.182 C 322.000 239.865,322.183 239.215,322.600 239.055 C 323.078 238.872,323.200 238.009,323.200 234.800 C 323.200 231.591,323.078 230.728,322.600 230.545 C 322.147 230.371,322.000 229.639,322.000 227.557 C 322.000 225.373,321.875 224.800,321.400 224.800 C 321.070 224.800,320.800 224.530,320.800 224.200 C 320.800 223.867,320.444 223.600,320.000 223.600 C 319.467 223.600,319.200 223.333,319.200 222.800 C 319.200 222.176,318.933 222.000,317.987 222.000 C 317.279 222.000,316.679 221.751,316.545 221.400 C 316.363 220.926,315.528 220.800,312.557 220.800 C 309.484 220.800,308.800 220.909,308.800 221.400 M331.600 221.400 C 331.600 221.819,331.178 222.000,330.200 222.000 C 329.067 222.000,328.800 222.152,328.800 222.800 C 328.800 223.244,328.533 223.600,328.200 223.600 C 327.870 223.600,327.600 223.870,327.600 224.200 C 327.600 224.530,327.349 224.800,327.043 224.800 C 325.620 224.800,325.382 242.945,326.800 243.316 C 327.330 243.455,327.600 243.862,327.600 244.523 C 327.600 245.273,327.899 245.626,328.800 245.940 C 329.460 246.170,330.000 246.548,330.000 246.779 C 330.000 247.053,331.889 247.200,335.400 247.200 C 339.933 247.200,340.800 247.104,340.800 246.600 C 340.800 246.225,341.179 246.000,341.810 246.000 C 342.495 246.000,342.932 245.705,343.168 245.084 C 343.360 244.580,343.805 243.927,344.158 243.635 C 344.583 243.282,344.800 242.457,344.800 241.194 C 344.800 239.867,344.983 239.215,345.400 239.055 C 345.878 238.872,346.000 238.009,346.000 234.800 C 346.000 231.591,345.878 230.728,345.400 230.545 C 344.971 230.380,344.800 229.709,344.800 228.190 C 344.800 225.696,344.524 224.800,343.757 224.800 C 343.451 224.800,343.200 224.530,343.200 224.200 C 343.200 223.870,342.951 223.600,342.647 223.600 C 342.342 223.600,341.999 223.240,341.884 222.800 C 341.732 222.217,341.338 222.000,340.437 222.000 C 339.604 222.000,339.200 221.804,339.200 221.400 C 339.200 220.909,338.511 220.800,335.400 220.800 C 332.289 220.800,331.600 220.909,331.600 221.400 M199.000 221.600 C 198.864 221.820,198.313 222.000,197.776 222.000 C 197.067 222.000,196.800 222.218,196.800 222.800 C 196.800 223.244,196.533 223.600,196.200 223.600 C 195.805 223.600,195.600 223.995,195.600 224.753 C 195.600 225.570,195.367 225.968,194.800 226.116 C 194.333 226.238,194.000 226.662,194.000 227.134 C 194.000 227.579,193.730 228.213,193.400 228.543 C 193.070 228.873,192.800 229.316,192.800 229.529 C 192.800 229.741,192.530 230.018,192.200 230.145 C 191.856 230.277,191.574 230.934,191.540 231.687 L 191.480 233.000 191.305 231.800 C 191.209 231.140,190.876 230.456,190.565 230.280 C 190.254 230.104,190.000 229.699,190.000 229.380 C 190.000 229.061,189.730 228.800,189.400 228.800 C 189.070 228.800,188.800 228.530,188.800 228.200 C 188.800 227.870,188.440 227.240,188.000 226.800 C 187.560 226.360,187.200 225.730,187.200 225.400 C 187.200 225.070,186.930 224.800,186.600 224.800 C 186.270 224.800,186.000 224.453,186.000 224.029 C 186.000 222.467,184.950 222.000,181.433 222.000 C 177.770 222.000,176.025 222.859,177.390 223.992 C 177.725 224.270,178.000 224.827,178.000 225.230 C 178.000 226.179,178.831 228.000,179.264 228.000 C 179.449 228.000,179.600 231.780,179.600 236.400 C 179.600 244.533,179.575 244.800,178.800 244.800 C 178.178 244.800,178.000 245.067,178.000 246.000 L 178.000 247.200 180.600 247.200 C 183.352 247.200,184.328 245.834,182.600 244.400 C 181.919 243.835,181.745 240.000,182.400 240.000 C 182.620 240.000,182.800 239.651,182.800 239.224 C 182.800 238.797,182.620 238.336,182.400 238.200 C 181.543 237.670,181.912 231.200,182.800 231.200 C 183.416 231.200,183.600 231.467,183.600 232.357 C 183.600 233.017,183.858 233.613,184.200 233.745 C 184.530 233.871,184.800 234.251,184.800 234.587 C 184.800 234.924,185.049 235.200,185.353 235.200 C 185.658 235.200,186.001 235.560,186.116 236.000 C 186.231 236.440,186.612 236.800,186.963 236.800 C 187.330 236.800,187.600 237.133,187.600 237.586 C 187.600 238.502,188.713 239.200,190.174 239.200 C 190.819 239.200,191.200 238.977,191.200 238.600 C 191.200 238.270,191.404 238.000,191.654 238.000 C 192.445 238.000,194.000 235.998,194.000 234.979 C 194.000 234.375,194.230 234.000,194.600 234.000 C 194.930 234.000,195.200 233.770,195.200 233.489 C 195.200 233.208,195.560 232.670,196.000 232.293 C 196.795 231.612,196.800 231.646,196.800 238.204 C 196.800 243.800,196.709 244.800,196.200 244.800 C 195.800 244.800,195.600 245.200,195.600 246.000 L 195.600 247.200 199.400 247.200 L 203.200 247.200 203.200 236.096 C 203.200 225.312,203.224 224.978,204.025 224.477 C 205.469 223.575,204.892 222.223,203.000 222.073 C 202.120 222.004,201.229 221.779,201.020 221.573 C 200.518 221.080,199.311 221.096,199.000 221.600 M217.800 221.600 C 217.664 221.820,217.113 222.000,216.576 222.000 C 215.758 222.000,215.600 222.194,215.600 223.200 C 215.600 223.867,215.244 224.756,214.800 225.200 C 214.305 225.695,214.000 226.533,214.000 227.400 C 214.000 228.378,213.819 228.800,213.400 228.800 C 212.985 228.800,212.800 229.217,212.800 230.157 C 212.800 230.995,212.570 231.603,212.200 231.745 C 211.789 231.902,211.600 232.545,211.600 233.787 C 211.600 235.333,211.482 235.600,210.800 235.600 C 210.176 235.600,210.000 235.867,210.000 236.813 C 210.000 237.521,209.751 238.121,209.400 238.255 C 208.993 238.412,208.800 239.050,208.800 240.243 C 208.800 241.538,208.642 242.000,208.200 242.000 C 207.781 242.000,207.600 242.422,207.600 243.400 C 207.600 244.607,207.469 244.800,206.649 244.800 C 205.335 244.800,204.533 245.796,205.200 246.600 C 205.554 247.027,206.492 247.200,208.449 247.200 L 211.200 247.200 211.200 245.247 C 211.200 243.630,211.338 243.257,212.000 243.084 C 212.575 242.934,212.800 242.538,212.800 241.680 C 212.800 240.987,213.052 240.389,213.400 240.255 C 213.730 240.129,214.000 239.594,214.000 239.067 C 214.000 238.175,214.181 238.095,216.637 237.898 C 218.087 237.781,219.473 237.487,219.717 237.243 C 220.451 236.509,220.800 236.737,220.800 237.951 C 220.800 238.584,221.070 239.326,221.400 239.600 C 221.745 239.886,222.000 240.758,222.000 241.649 C 222.000 242.667,222.275 243.475,222.800 244.000 L 223.600 244.800 222.800 244.800 C 222.178 244.800,222.000 245.067,222.000 246.000 L 222.000 247.200 224.768 247.200 C 226.647 247.200,227.918 247.419,228.726 247.883 C 229.727 248.458,230.019 248.482,230.558 248.034 C 231.398 247.337,231.431 244.800,230.600 244.800 C 230.181 244.800,230.000 244.378,230.000 243.400 C 230.000 242.422,229.819 242.000,229.400 242.000 C 228.954 242.000,228.800 241.529,228.800 240.163 C 228.800 238.662,228.654 238.287,228.000 238.116 C 227.338 237.943,227.200 237.570,227.200 235.953 C 227.200 234.484,227.051 234.000,226.600 234.000 C 226.155 234.000,226.000 233.532,226.000 232.187 C 226.000 230.945,225.811 230.302,225.400 230.145 C 224.990 229.987,224.800 229.346,224.800 228.120 C 224.800 226.662,224.650 226.286,224.000 226.116 C 223.065 225.871,222.927 224.590,223.800 224.255 C 225.502 223.602,223.833 222.000,221.450 222.000 C 220.678 222.000,219.936 221.820,219.800 221.600 C 219.664 221.380,219.214 221.200,218.800 221.200 C 218.386 221.200,217.936 221.380,217.800 221.600 M364.000 221.970 C 362.318 222.185,362.192 222.285,362.075 223.500 C 361.997 224.305,361.731 224.800,361.375 224.800 C 361.059 224.800,360.800 225.051,360.800 225.357 C 360.800 225.664,360.530 226.018,360.200 226.145 C 359.870 226.271,359.600 226.651,359.600 226.987 C 359.600 227.324,359.324 227.600,358.987 227.600 C 358.651 227.600,358.271 227.870,358.145 228.200 C 358.018 228.530,357.664 228.800,357.357 228.800 C 357.051 228.800,356.800 229.070,356.800 229.400 C 356.800 230.171,356.237 230.168,355.594 229.392 C 355.184 228.899,355.205 228.655,355.707 228.092 C 356.050 227.708,356.451 226.198,356.609 224.700 L 356.893 222.000 352.847 222.000 L 348.800 222.000 348.800 223.400 C 348.800 224.378,348.981 224.800,349.400 224.800 C 349.917 224.800,350.000 226.178,350.000 234.800 C 350.000 243.422,349.917 244.800,349.400 244.800 C 349.000 244.800,348.800 245.200,348.800 246.000 C 348.800 247.130,348.892 247.200,350.376 247.200 C 351.243 247.200,352.064 247.380,352.200 247.600 C 352.336 247.820,352.876 248.000,353.400 248.000 C 353.924 248.000,354.464 247.820,354.600 247.600 C 354.736 247.380,355.287 247.200,355.824 247.200 C 356.642 247.200,356.800 247.006,356.800 246.000 C 356.800 245.067,356.622 244.800,356.000 244.800 C 355.022 244.800,354.885 243.159,355.800 242.400 C 356.130 242.126,356.400 241.294,356.400 240.551 C 356.400 239.113,357.450 239.589,358.118 241.331 C 358.259 241.699,358.651 242.000,358.987 242.000 C 359.324 242.000,359.600 242.270,359.600 242.600 C 359.600 242.930,359.870 243.200,360.200 243.200 C 360.530 243.200,360.800 243.476,360.800 243.813 C 360.800 244.149,361.070 244.529,361.400 244.655 C 361.742 244.787,362.000 245.383,362.000 246.043 L 362.000 247.200 367.200 247.200 L 372.400 247.200 372.400 246.000 C 372.400 244.933,372.267 244.800,371.200 244.800 C 370.461 244.800,370.000 244.593,370.000 244.261 C 370.000 243.965,369.640 243.307,369.200 242.800 C 368.760 242.293,368.400 241.635,368.400 241.339 C 368.400 241.042,368.130 240.800,367.800 240.800 C 367.470 240.800,367.200 240.530,367.200 240.200 C 367.200 239.870,366.930 239.600,366.600 239.600 C 366.270 239.600,366.000 239.396,366.000 239.146 C 366.000 238.612,364.130 236.800,363.579 236.800 C 363.371 236.800,363.200 236.530,363.200 236.200 C 363.200 235.870,362.930 235.600,362.600 235.600 C 362.270 235.600,362.000 235.370,362.000 235.089 C 362.000 234.808,361.625 234.257,361.167 233.864 C 360.690 233.456,360.433 232.891,360.567 232.543 C 360.695 232.208,360.800 231.769,360.800 231.567 C 360.800 231.365,361.070 231.200,361.400 231.200 C 361.730 231.200,362.000 230.930,362.000 230.600 C 362.000 230.270,362.270 230.000,362.600 230.000 C 362.930 230.000,363.200 229.751,363.200 229.447 C 363.200 229.142,363.560 228.799,364.000 228.684 C 364.440 228.569,364.800 228.188,364.800 227.837 C 364.800 227.487,365.070 227.200,365.400 227.200 C 365.730 227.200,366.000 227.020,366.000 226.800 C 366.000 226.279,367.276 225.010,368.131 224.682 C 368.913 224.382,369.046 222.451,368.300 222.221 C 367.062 221.839,365.665 221.758,364.000 221.970 M99.874 222.259 C 99.421 222.713,99.565 225.005,100.080 225.520 C 100.793 226.233,103.200 226.141,103.200 225.400 C 103.200 225.067,103.556 224.800,104.000 224.800 C 104.779 224.800,104.800 225.067,104.800 234.800 C 104.800 243.422,104.717 244.800,104.200 244.800 C 103.800 244.800,103.600 245.200,103.600 246.000 L 103.600 247.200 106.157 247.200 C 108.061 247.200,108.773 247.353,108.945 247.800 C 109.071 248.130,109.546 248.400,110.000 248.400 C 110.454 248.400,110.929 248.130,111.055 247.800 C 111.182 247.470,111.626 247.200,112.043 247.200 C 112.617 247.200,112.800 246.911,112.800 246.000 C 112.800 245.067,112.622 244.800,112.000 244.800 C 110.836 244.800,110.741 226.237,111.900 225.357 C 112.846 224.639,114.000 224.663,114.000 225.400 C 114.000 226.199,116.919 226.220,117.578 225.426 C 117.840 225.111,117.997 224.256,117.927 223.526 L 117.800 222.200 108.974 222.093 C 104.120 222.033,100.025 222.108,99.874 222.259 M119.100 222.276 C 118.221 222.506,118.131 224.400,119.000 224.400 C 120.105 224.400,119.876 244.634,118.768 244.924 C 118.171 245.081,117.974 245.403,118.068 246.071 C 118.196 246.972,118.334 247.003,122.700 247.113 L 127.200 247.226 127.200 246.013 C 127.200 245.201,127.001 244.800,126.600 244.800 C 126.100 244.800,126.000 244.000,126.000 240.000 L 126.000 235.200 130.800 235.200 L 135.600 235.200 135.600 240.000 C 135.600 244.533,135.556 244.800,134.800 244.800 C 134.178 244.800,134.000 245.067,134.000 246.000 L 134.000 247.200 137.157 247.200 C 139.595 247.200,140.367 247.063,140.545 246.600 C 140.860 245.777,140.433 244.800,139.757 244.800 C 139.295 244.800,139.200 243.052,139.200 234.600 C 139.200 225.608,139.274 224.400,139.827 224.400 C 140.274 224.400,140.417 224.086,140.327 223.300 C 140.202 222.217,140.151 222.198,137.100 222.083 L 134.000 221.966 134.000 223.383 C 134.000 224.533,134.151 224.800,134.800 224.800 C 135.533 224.800,135.600 225.067,135.600 228.000 C 135.600 232.512,135.263 232.800,130.000 232.800 L 126.000 232.800 126.000 228.800 C 126.000 225.511,126.107 224.800,126.600 224.800 C 127.019 224.800,127.200 224.378,127.200 223.400 L 127.200 222.000 123.500 222.046 C 121.465 222.072,119.485 222.175,119.100 222.276 M142.000 223.230 C 142.000 224.138,142.216 224.531,142.800 224.684 C 143.573 224.886,143.600 225.230,143.600 234.847 C 143.600 244.533,143.579 244.800,142.800 244.800 C 142.178 244.800,142.000 245.067,142.000 246.000 C 142.000 246.911,142.183 247.200,142.757 247.200 C 143.174 247.200,143.618 247.470,143.745 247.800 C 144.056 248.611,147.956 248.620,149.024 247.813 C 150.033 247.049,151.165 247.043,151.455 247.800 C 151.610 248.204,152.244 248.400,153.394 248.400 C 154.424 248.400,155.300 248.162,155.600 247.800 C 155.940 247.390,156.850 247.200,158.471 247.200 L 160.844 247.200 160.722 245.340 C 160.515 242.178,156.800 240.556,156.800 243.627 L 156.800 244.800 153.400 244.800 L 150.000 244.800 150.000 240.000 L 150.000 235.200 151.953 235.200 C 153.590 235.200,153.942 235.334,154.122 236.025 C 154.305 236.724,154.601 236.830,156.069 236.725 L 157.800 236.600 157.919 234.100 L 158.038 231.600 155.496 231.600 C 153.994 231.600,152.651 231.821,152.216 232.139 C 150.792 233.180,150.000 231.701,150.000 228.000 L 150.000 224.800 153.400 224.800 C 156.209 224.800,156.800 224.908,156.800 225.422 C 156.800 225.914,157.196 226.018,158.700 225.922 L 160.600 225.800 160.600 224.000 L 160.600 222.200 151.300 222.093 L 142.000 221.985 142.000 223.230 M235.719 222.790 C 235.600 223.242,235.173 223.600,234.753 223.600 C 234.339 223.600,234.000 223.870,234.000 224.200 C 234.000 224.530,233.730 224.800,233.400 224.800 C 233.070 224.800,232.800 225.070,232.800 225.400 C 232.800 225.730,232.530 226.000,232.200 226.000 C 231.867 226.000,231.600 226.356,231.600 226.800 C 231.600 227.240,231.349 227.600,231.043 227.600 C 229.631 227.600,229.395 241.517,230.800 241.884 C 231.367 242.032,231.600 242.430,231.600 243.247 C 231.600 244.005,231.805 244.400,232.200 244.400 C 232.533 244.400,232.800 244.756,232.800 245.200 C 232.800 245.848,233.067 246.000,234.200 246.000 C 235.178 246.000,235.600 246.181,235.600 246.600 C 235.600 247.106,236.511 247.200,241.400 247.200 C 246.072 247.200,247.200 247.092,247.200 246.647 C 247.200 246.342,247.560 245.999,248.000 245.884 C 248.749 245.688,248.800 245.338,248.800 240.437 C 248.800 236.049,248.897 235.200,249.400 235.200 C 249.801 235.200,250.000 234.799,250.000 233.987 L 250.000 232.774 245.500 232.887 C 241.175 232.996,240.995 233.035,240.872 233.902 C 240.795 234.443,240.995 234.900,241.372 235.045 C 242.456 235.461,242.291 244.800,241.200 244.800 C 240.756 244.800,240.400 244.533,240.400 244.200 C 240.400 243.756,239.933 243.600,238.600 243.600 C 237.078 243.600,236.795 243.477,236.767 242.800 C 236.748 242.360,236.733 240.200,236.733 238.000 C 236.733 227.820,236.772 227.200,237.400 227.200 C 237.730 227.200,238.000 226.930,238.000 226.600 C 238.000 226.200,238.400 226.000,239.200 226.000 C 240.000 226.000,240.400 225.800,240.400 225.400 C 240.400 225.070,240.741 224.800,241.157 224.800 C 241.574 224.800,242.018 225.070,242.145 225.400 C 242.279 225.751,242.879 226.000,243.587 226.000 C 244.399 226.000,244.800 226.199,244.800 226.600 C 244.800 227.054,245.291 227.200,246.819 227.200 L 248.838 227.200 248.719 224.700 L 248.600 222.200 242.265 222.090 C 236.193 221.984,235.922 222.013,235.719 222.790 M268.800 222.800 C 268.800 223.391,268.533 223.600,267.781 223.600 C 266.559 223.600,264.831 225.405,264.813 226.700 C 264.805 227.228,264.552 227.600,264.200 227.600 C 263.749 227.600,263.600 228.084,263.600 229.553 C 263.600 231.170,263.462 231.543,262.800 231.716 C 262.077 231.905,262.000 232.262,262.000 235.400 C 262.000 238.538,262.077 238.895,262.800 239.084 C 263.421 239.247,263.600 239.630,263.600 240.798 C 263.600 241.647,263.861 242.519,264.200 242.800 C 264.530 243.074,264.800 243.552,264.800 243.862 C 264.800 244.171,265.070 244.529,265.400 244.655 C 265.730 244.782,266.000 245.136,266.000 245.443 C 266.000 245.749,266.295 246.000,266.656 246.000 C 267.017 246.000,267.512 246.264,267.756 246.587 C 268.149 247.106,273.839 247.398,280.100 247.220 C 280.693 247.203,280.800 246.802,280.800 244.600 L 280.800 242.000 279.400 242.000 C 278.267 242.000,278.000 242.152,278.000 242.800 C 278.000 243.244,277.733 243.600,277.400 243.600 C 277.070 243.600,276.800 243.870,276.800 244.200 C 276.800 244.621,276.375 244.800,275.371 244.800 C 274.586 244.800,273.673 244.530,273.343 244.200 C 273.013 243.870,272.126 243.600,271.371 243.600 L 270.000 243.600 270.000 235.462 C 270.000 226.500,270.134 226.000,272.544 226.000 C 273.139 226.000,273.729 225.730,273.855 225.400 C 273.982 225.070,274.407 224.800,274.800 224.800 C 275.193 224.800,275.618 225.070,275.745 225.400 C 275.871 225.730,276.431 226.000,276.987 226.000 C 277.621 226.000,278.000 226.225,278.000 226.600 C 278.000 227.019,278.422 227.200,279.400 227.200 L 280.800 227.200 280.800 224.600 L 280.800 222.000 274.800 222.000 C 269.067 222.000,268.800 222.036,268.800 222.800 M282.000 223.237 C 282.000 224.138,282.217 224.532,282.800 224.684 C 283.573 224.886,283.600 225.230,283.600 234.847 C 283.600 244.533,283.579 244.800,282.800 244.800 C 282.178 244.800,282.000 245.067,282.000 246.000 C 282.000 246.933,282.178 247.200,282.800 247.200 C 283.244 247.200,283.600 247.467,283.600 247.800 C 283.600 248.242,284.061 248.400,285.351 248.400 C 286.420 248.400,287.296 248.166,287.600 247.800 C 287.994 247.326,289.136 247.200,293.049 247.200 C 297.183 247.200,298.000 247.101,298.000 246.600 C 298.000 246.229,298.376 246.000,298.986 246.000 C 299.989 246.000,300.800 245.015,300.800 243.798 C 300.800 243.438,301.070 242.873,301.400 242.543 C 301.767 242.176,302.000 241.196,302.000 240.020 C 302.000 238.800,301.781 237.916,301.400 237.600 C 301.070 237.326,300.800 236.764,300.800 236.351 C 300.800 235.882,300.517 235.600,300.047 235.600 C 299.580 235.600,299.232 235.257,299.131 234.700 C 298.897 233.398,299.179 232.400,299.783 232.400 C 301.045 232.400,301.272 226.449,300.023 226.122 C 299.548 225.998,299.198 225.507,299.123 224.859 C 299.028 224.044,298.751 223.771,297.919 223.675 C 297.273 223.601,296.739 223.239,296.592 222.775 C 296.361 222.046,295.919 222.000,289.173 222.000 L 282.000 222.000 282.000 223.237 M291.745 225.400 C 291.902 225.811,292.545 226.000,293.787 226.000 C 295.132 226.000,295.600 226.155,295.600 226.600 C 295.600 226.930,295.870 227.200,296.200 227.200 C 296.619 227.200,296.800 227.622,296.800 228.600 C 296.800 229.578,296.619 230.000,296.200 230.000 C 295.867 230.000,295.600 230.356,295.600 230.800 C 295.600 231.493,295.333 231.600,293.600 231.600 C 292.089 231.600,291.600 231.747,291.600 232.200 C 291.600 232.533,291.244 232.800,290.800 232.800 C 290.053 232.800,290.000 232.533,290.000 228.800 C 290.000 225.142,290.065 224.800,290.757 224.800 C 291.174 224.800,291.618 225.070,291.745 225.400 M315.600 225.400 C 315.600 225.730,315.870 226.000,316.200 226.000 C 316.530 226.000,316.800 226.270,316.800 226.600 C 316.800 226.930,317.070 227.200,317.400 227.200 C 317.804 227.200,318.000 227.604,318.000 228.437 C 318.000 229.338,318.217 229.732,318.800 229.884 C 319.541 230.078,319.600 230.430,319.600 234.684 C 319.600 238.938,319.541 239.290,318.800 239.484 C 318.233 239.632,318.000 240.030,318.000 240.847 C 318.000 241.507,317.785 242.000,317.496 242.000 C 317.219 242.000,316.768 242.360,316.493 242.800 C 316.210 243.252,315.560 243.600,314.997 243.600 C 314.377 243.600,314.000 243.827,314.000 244.200 C 314.000 244.619,313.578 244.800,312.600 244.800 C 311.622 244.800,311.200 244.619,311.200 244.200 C 311.200 243.870,310.930 243.600,310.600 243.600 C 310.084 243.600,310.000 242.289,310.000 234.200 L 310.000 224.800 312.800 224.800 C 315.022 224.800,315.600 224.924,315.600 225.400 M338.145 225.400 C 338.271 225.730,338.651 226.000,338.987 226.000 C 339.324 226.000,339.600 226.270,339.600 226.600 C 339.600 226.930,339.870 227.200,340.200 227.200 C 340.619 227.200,340.800 227.622,340.800 228.600 C 340.800 229.578,340.981 230.000,341.400 230.000 C 341.900 230.000,342.000 230.800,342.000 234.800 C 342.000 238.800,341.900 239.600,341.400 239.600 C 341.000 239.600,340.800 240.000,340.800 240.800 C 340.800 241.508,340.590 242.000,340.288 242.000 C 340.007 242.000,339.517 242.360,339.200 242.800 C 338.883 243.240,338.213 243.600,337.712 243.600 C 337.168 243.600,336.800 243.842,336.800 244.200 C 336.800 244.619,336.378 244.800,335.400 244.800 C 334.422 244.800,334.000 244.619,334.000 244.200 C 334.000 243.870,333.685 243.600,333.300 243.600 C 332.652 243.600,332.607 242.955,332.695 234.900 C 332.747 230.115,332.792 225.885,332.795 225.500 C 332.802 224.543,337.780 224.450,338.145 225.400 M218.000 230.600 C 218.000 230.933,218.356 231.200,218.800 231.200 C 219.448 231.200,219.600 231.467,219.600 232.600 C 219.600 233.994,219.592 234.000,217.786 234.000 C 216.116 234.000,216.005 233.938,216.386 233.226 C 216.614 232.801,216.800 231.901,216.800 231.226 C 216.800 230.403,216.997 230.000,217.400 230.000 C 217.730 230.000,218.000 230.270,218.000 230.600 M293.826 236.800 C 295.136 236.800,295.600 236.957,295.600 237.400 C 295.600 237.730,295.870 238.000,296.200 238.000 C 296.530 238.000,296.800 238.270,296.800 238.600 C 296.800 238.930,297.070 239.200,297.400 239.200 C 297.819 239.200,298.000 239.622,298.000 240.600 C 298.000 241.578,297.819 242.000,297.400 242.000 C 297.067 242.000,296.800 242.356,296.800 242.800 C 296.800 243.449,296.533 243.600,295.387 243.600 C 294.501 243.600,293.889 243.823,293.745 244.200 C 293.588 244.607,292.950 244.800,291.757 244.800 L 290.000 244.800 290.000 240.410 L 290.000 236.020 291.026 236.410 C 291.590 236.624,292.850 236.800,293.826 236.800 " stroke="none" fill="#f47c4a" fill-rule="evenodd"></path><path id="path1" d="M150.116 166.800 C 149.922 167.541,149.570 167.600,145.353 167.600 C 141.573 167.600,140.800 167.702,140.800 168.200 C 140.800 168.684,140.176 168.800,137.587 168.800 C 135.101 168.800,134.323 168.936,134.145 169.400 C 134.013 169.742,133.417 170.000,132.757 170.000 C 132.121 170.000,131.240 170.360,130.800 170.800 C 130.360 171.240,129.730 171.600,129.400 171.600 C 129.070 171.600,128.800 171.870,128.800 172.200 C 128.800 172.530,128.530 172.800,128.200 172.800 C 127.870 172.800,127.600 173.049,127.600 173.353 C 127.600 173.658,127.240 174.001,126.800 174.116 C 126.161 174.283,126.000 174.662,126.000 176.000 C 126.000 177.338,126.161 177.717,126.800 177.884 C 127.367 178.032,127.600 178.430,127.600 179.247 C 127.600 180.005,127.805 180.400,128.200 180.400 C 128.533 180.400,128.800 180.756,128.800 181.200 C 128.800 181.640,129.051 182.000,129.357 182.000 C 129.664 182.000,130.018 182.270,130.145 182.600 C 130.276 182.943,130.873 183.200,131.541 183.200 C 132.395 183.200,132.766 183.428,132.930 184.055 C 133.128 184.811,133.363 184.886,134.977 184.704 C 136.997 184.476,137.444 185.315,136.187 186.976 C 135.860 187.409,135.600 188.604,135.600 189.676 C 135.600 191.054,135.442 191.600,135.043 191.600 C 134.345 191.600,134.000 192.471,134.000 194.233 C 134.000 195.181,133.816 195.600,133.400 195.600 C 132.947 195.600,132.800 196.089,132.800 197.600 C 132.800 199.111,132.653 199.600,132.200 199.600 C 131.699 199.600,131.600 200.424,131.600 204.613 C 131.600 208.699,131.711 209.668,132.200 209.855 C 132.530 209.982,132.800 210.336,132.800 210.643 C 132.800 210.949,133.049 211.200,133.353 211.200 C 133.658 211.200,133.999 211.553,134.112 211.985 C 134.434 213.217,150.763 213.229,151.085 211.997 C 151.257 211.338,151.632 211.200,153.247 211.200 C 154.716 211.200,155.200 211.051,155.200 210.600 C 155.200 210.147,155.689 210.000,157.200 210.000 C 158.711 210.000,159.200 209.853,159.200 209.400 C 159.200 208.996,159.604 208.800,160.437 208.800 C 161.338 208.800,161.732 208.583,161.884 208.000 C 162.030 207.442,162.430 207.200,163.204 207.200 C 163.822 207.200,164.416 206.934,164.545 206.600 C 164.671 206.270,165.051 206.000,165.387 206.000 C 165.724 206.000,166.000 205.730,166.000 205.400 C 166.000 205.070,166.270 204.800,166.600 204.800 C 166.933 204.800,167.200 204.444,167.200 204.000 C 167.200 203.560,167.451 203.200,167.757 203.200 C 169.122 203.200,169.326 196.126,168.000 194.800 C 167.560 194.360,167.200 193.730,167.200 193.400 C 167.200 193.070,166.930 192.800,166.600 192.800 C 166.270 192.800,166.000 192.530,166.000 192.200 C 166.000 191.870,165.730 191.600,165.400 191.600 C 165.070 191.600,164.800 191.313,164.800 190.963 C 164.800 190.612,164.440 190.231,164.000 190.116 C 163.560 190.001,163.200 189.658,163.200 189.353 C 163.200 189.049,162.930 188.800,162.600 188.800 C 162.270 188.800,162.000 188.543,162.000 188.229 C 162.000 187.915,161.685 187.576,161.300 187.476 C 160.633 187.302,160.633 187.291,161.300 187.246 C 161.685 187.221,162.000 186.930,162.000 186.600 C 162.000 186.270,162.270 186.000,162.600 186.000 C 162.930 186.000,163.200 185.751,163.200 185.447 C 163.200 185.142,163.560 184.799,164.000 184.684 C 164.440 184.569,164.800 184.188,164.800 183.837 C 164.800 183.487,165.070 183.200,165.400 183.200 C 165.795 183.200,166.000 182.805,166.000 182.043 C 166.000 181.383,166.258 180.787,166.600 180.655 C 167.060 180.479,167.200 179.720,167.200 177.400 C 167.200 175.080,167.060 174.321,166.600 174.145 C 166.270 174.018,166.000 173.467,166.000 172.920 C 166.000 172.262,165.729 171.854,165.200 171.716 C 164.760 171.601,164.400 171.258,164.400 170.953 C 164.400 170.649,164.248 170.400,164.061 170.400 C 163.875 170.400,163.307 170.040,162.800 169.600 C 162.293 169.160,161.654 168.800,161.382 168.800 C 161.109 168.800,160.782 168.530,160.655 168.200 C 160.498 167.790,159.856 167.600,158.627 167.600 C 157.238 167.600,156.731 167.418,156.400 166.800 C 156.034 166.116,155.562 166.000,153.148 166.000 C 150.662 166.000,150.300 166.095,150.116 166.800 M311.200 166.705 C 310.870 167.087,310.240 167.599,309.800 167.843 C 308.716 168.443,308.341 178.649,309.388 179.051 C 309.861 179.232,310.000 179.958,310.000 182.239 C 310.000 184.760,310.117 185.266,310.800 185.693 C 311.334 186.026,311.600 186.626,311.600 187.496 C 311.600 188.388,311.789 188.800,312.200 188.800 C 312.600 188.800,312.800 189.200,312.800 190.000 C 312.800 190.800,313.000 191.200,313.400 191.200 C 313.819 191.200,314.000 191.622,314.000 192.600 C 314.000 193.578,313.819 194.000,313.400 194.000 C 312.981 194.000,312.800 194.422,312.800 195.400 C 312.800 196.378,312.619 196.800,312.200 196.800 C 311.781 196.800,311.600 197.222,311.600 198.200 C 311.600 199.333,311.448 199.600,310.800 199.600 C 310.284 199.600,310.000 199.867,310.000 200.351 C 310.000 200.764,309.730 201.326,309.400 201.600 C 309.070 201.874,308.800 202.687,308.800 203.406 C 308.800 204.200,308.564 204.805,308.200 204.945 C 307.803 205.097,307.600 205.724,307.600 206.800 C 307.600 207.876,307.803 208.503,308.200 208.655 C 308.542 208.787,308.800 209.383,308.800 210.043 C 308.800 210.761,309.010 211.200,309.353 211.200 C 309.658 211.200,310.001 211.560,310.116 212.000 C 310.268 212.583,310.662 212.800,311.563 212.800 C 312.396 212.800,312.800 212.996,312.800 213.400 C 312.800 213.857,313.300 214.000,314.901 214.000 C 317.222 214.000,319.200 212.544,319.200 210.836 C 319.200 210.371,319.458 210.000,319.782 210.000 C 320.128 210.000,320.468 209.444,320.621 208.628 C 320.763 207.873,321.131 207.159,321.439 207.040 C 321.748 206.922,322.000 206.369,322.000 205.813 C 322.000 205.179,322.225 204.800,322.600 204.800 C 323.019 204.800,323.200 204.378,323.200 203.400 C 323.200 202.453,323.385 202.000,323.772 202.000 C 324.087 202.000,324.761 201.145,325.272 200.100 C 325.782 199.055,326.424 198.056,326.700 197.880 C 326.975 197.704,327.200 197.029,327.200 196.380 C 327.200 195.706,327.415 195.197,327.700 195.193 C 328.560 195.181,330.000 193.335,330.000 192.244 C 330.000 191.583,330.220 191.200,330.600 191.200 C 330.995 191.200,331.200 190.805,331.200 190.047 C 331.200 189.230,331.433 188.832,332.000 188.684 C 332.544 188.542,332.800 188.138,332.800 187.425 C 332.800 186.847,333.070 186.271,333.400 186.145 C 333.730 186.018,334.000 185.664,334.000 185.357 C 334.000 185.051,334.239 184.800,334.530 184.800 C 335.174 184.800,336.800 183.134,336.800 182.474 C 336.800 182.213,337.070 182.000,337.400 182.000 C 337.733 182.000,338.000 181.644,338.000 181.200 C 338.000 180.756,338.267 180.400,338.600 180.400 C 338.930 180.400,339.200 180.220,339.200 180.000 C 339.200 179.479,340.476 178.210,341.331 177.882 C 341.699 177.741,342.000 177.369,342.000 177.055 C 342.000 176.742,342.270 176.382,342.600 176.255 C 343.440 175.933,343.480 170.000,342.643 170.000 C 342.336 170.000,341.982 169.730,341.855 169.400 C 341.721 169.049,341.121 168.800,340.413 168.800 C 339.293 168.800,339.200 168.692,339.200 167.400 L 339.200 166.000 337.003 166.000 C 335.240 166.000,334.708 166.158,334.307 166.800 C 334.004 167.286,333.374 167.600,332.704 167.600 C 331.989 167.600,331.600 167.812,331.600 168.200 C 331.600 168.533,331.244 168.800,330.800 168.800 C 330.356 168.800,330.000 169.067,330.000 169.400 C 330.000 169.730,329.730 170.000,329.400 170.000 C 329.067 170.000,328.800 170.356,328.800 170.800 C 328.800 171.244,328.533 171.600,328.200 171.600 C 327.870 171.600,327.600 171.870,327.600 172.200 C 327.600 172.530,327.375 172.803,327.100 172.807 C 326.240 172.819,324.800 174.665,324.800 175.756 C 324.800 176.417,324.580 176.800,324.200 176.800 C 323.870 176.800,323.600 177.070,323.600 177.400 C 323.600 177.730,323.240 178.360,322.800 178.800 L 322.000 179.600 322.000 177.600 C 322.000 176.089,321.853 175.600,321.400 175.600 C 320.947 175.600,320.800 175.111,320.800 173.600 C 320.800 171.888,320.688 171.600,320.025 171.600 C 319.444 171.600,319.219 171.276,319.125 170.300 C 319.015 169.157,318.843 168.985,317.700 168.875 C 316.895 168.797,316.400 168.531,316.400 168.175 C 316.400 167.808,315.983 167.600,315.247 167.600 C 314.430 167.600,314.032 167.367,313.884 166.800 C 313.621 165.795,312.035 165.739,311.200 166.705 M247.745 167.000 C 247.618 167.330,247.174 167.600,246.757 167.600 C 246.115 167.600,246.000 167.904,246.000 169.600 C 246.000 171.674,245.122 172.474,244.684 170.800 C 244.569 170.360,244.188 170.000,243.837 170.000 C 243.487 170.000,243.200 169.730,243.200 169.400 C 243.200 169.070,242.930 168.800,242.600 168.800 C 242.270 168.800,242.000 168.530,242.000 168.200 C 242.000 167.680,240.383 167.600,229.849 167.600 C 219.536 167.600,217.623 167.691,217.200 168.200 C 216.882 168.583,215.997 168.800,214.751 168.800 C 213.283 168.800,212.800 168.949,212.800 169.400 C 212.800 169.730,212.530 170.000,212.200 170.000 C 211.785 170.000,211.600 170.417,211.600 171.351 C 211.600 172.094,211.870 172.926,212.200 173.200 C 212.597 173.530,212.800 174.425,212.800 175.849 C 212.800 177.494,212.941 178.000,213.400 178.000 C 213.730 178.000,214.000 178.270,214.000 178.600 C 214.000 178.933,214.356 179.200,214.800 179.200 C 215.240 179.200,215.600 179.467,215.600 179.792 C 215.600 180.502,217.213 180.977,218.371 180.609 C 218.827 180.464,219.200 180.088,219.200 179.773 C 219.200 179.369,219.643 179.214,220.700 179.246 C 221.525 179.272,221.885 179.375,221.500 179.476 C 220.953 179.619,220.800 180.089,220.800 181.629 C 220.800 183.114,220.652 183.600,220.200 183.600 C 219.750 183.600,219.600 184.079,219.600 185.511 C 219.600 186.927,219.393 187.600,218.800 188.107 C 218.282 188.551,218.000 189.287,218.000 190.196 C 218.000 191.177,217.819 191.600,217.400 191.600 C 216.985 191.600,216.800 192.017,216.800 192.957 C 216.800 193.795,216.570 194.403,216.200 194.545 C 215.804 194.697,215.600 195.323,215.600 196.387 C 215.600 197.733,215.468 198.000,214.800 198.000 C 214.152 198.000,214.000 198.267,214.000 199.400 L 214.000 200.800 209.400 200.800 C 205.578 200.800,204.800 200.901,204.800 201.400 C 204.800 201.730,204.530 202.000,204.200 202.000 C 203.717 202.000,203.600 202.622,203.600 205.200 C 203.600 207.778,203.717 208.400,204.200 208.400 C 204.619 208.400,204.800 208.822,204.800 209.800 C 204.800 210.725,204.988 211.200,205.353 211.200 C 205.658 211.200,206.001 211.560,206.116 212.000 C 206.302 212.712,206.662 212.800,209.400 212.800 C 212.138 212.800,212.498 212.712,212.684 212.000 C 212.881 211.247,213.230 211.200,218.659 211.200 C 223.415 211.200,224.465 211.095,224.655 210.600 C 224.833 210.137,225.605 210.000,228.043 210.000 C 230.583 210.000,231.200 209.883,231.200 209.400 C 231.200 209.070,231.547 208.800,231.971 208.800 C 233.400 208.800,234.000 207.710,234.000 205.117 C 234.000 202.396,232.884 200.800,230.979 200.800 C 230.375 200.800,230.000 200.570,230.000 200.200 C 230.000 199.781,229.578 199.600,228.600 199.600 C 226.944 199.600,226.675 198.525,228.000 197.200 C 228.453 196.747,228.800 195.867,228.800 195.171 C 228.800 194.496,229.070 193.673,229.400 193.343 C 229.772 192.971,230.000 191.989,230.000 190.759 C 230.000 189.364,230.178 188.706,230.600 188.545 C 231.007 188.388,231.200 187.750,231.200 186.557 C 231.200 185.333,231.443 184.557,232.000 184.000 C 232.590 183.410,232.800 182.667,232.800 181.171 C 232.800 178.239,233.187 178.000,237.943 178.000 C 240.965 178.000,242.090 177.853,242.543 177.400 C 243.426 176.517,243.600 176.648,243.600 178.200 C 243.600 179.333,243.448 179.600,242.800 179.600 C 242.107 179.600,242.000 179.867,242.000 181.600 C 242.000 183.111,241.853 183.600,241.400 183.600 C 240.992 183.600,240.796 184.017,240.787 184.900 C 240.780 185.615,240.510 186.549,240.187 186.976 C 239.860 187.409,239.600 188.604,239.600 189.676 C 239.600 191.333,239.489 191.600,238.800 191.600 C 238.107 191.600,238.000 191.867,238.000 193.600 C 238.000 195.111,237.853 195.600,237.400 195.600 C 236.899 195.600,236.800 196.424,236.800 200.613 C 236.800 204.699,236.911 205.668,237.400 205.855 C 237.730 205.982,238.000 206.510,238.000 207.029 C 238.000 207.552,238.345 208.156,238.773 208.386 C 239.199 208.613,239.604 209.295,239.673 209.900 C 239.773 210.764,240.036 211.027,240.900 211.127 C 241.505 211.196,242.000 211.492,242.000 211.784 C 242.000 212.604,242.961 212.800,246.933 212.795 C 251.112 212.788,252.400 212.543,252.400 211.753 C 252.400 211.358,252.957 211.200,254.357 211.200 C 255.728 211.200,256.383 211.020,256.545 210.600 C 256.739 210.094,258.034 210.000,264.787 210.000 C 271.643 210.000,272.800 209.913,272.800 209.400 C 272.800 209.070,273.070 208.800,273.400 208.800 C 273.831 208.800,274.000 208.360,274.000 207.237 C 274.000 205.872,274.101 205.701,274.800 205.884 C 275.462 206.057,275.600 206.430,275.600 208.047 C 275.600 209.516,275.749 210.000,276.200 210.000 C 276.530 210.000,276.800 210.270,276.800 210.600 C 276.800 210.930,277.049 211.200,277.353 211.200 C 277.658 211.200,278.001 211.560,278.116 212.000 C 278.287 212.654,278.662 212.800,280.166 212.800 C 281.513 212.800,282.192 212.585,282.693 212.000 C 283.119 211.502,283.873 211.200,284.689 211.200 C 285.588 211.200,286.000 211.011,286.000 210.600 C 286.000 210.199,286.401 210.000,287.213 210.000 C 287.921 210.000,288.521 209.751,288.655 209.400 C 288.787 209.058,289.383 208.800,290.043 208.800 C 290.679 208.800,291.560 208.440,292.000 208.000 C 292.440 207.560,293.256 207.200,293.813 207.200 C 294.369 207.200,294.929 206.930,295.055 206.600 C 295.185 206.261,295.781 206.000,296.423 206.000 C 297.048 206.000,297.704 205.771,297.880 205.492 C 298.056 205.212,298.695 204.766,299.300 204.500 C 299.905 204.235,300.400 203.833,300.400 203.609 C 300.400 203.384,300.760 203.200,301.200 203.200 C 301.640 203.200,302.000 202.950,302.000 202.643 C 302.000 202.337,302.405 201.980,302.900 201.848 C 304.240 201.494,307.200 198.643,307.200 197.707 C 307.200 197.230,307.531 196.807,308.000 196.684 C 308.544 196.542,308.800 196.138,308.800 195.425 C 308.800 194.847,309.070 194.271,309.400 194.145 C 309.840 193.976,310.000 193.282,310.000 191.545 C 310.000 189.807,309.840 189.113,309.400 188.945 C 308.990 188.787,308.800 188.146,308.800 186.920 C 308.800 185.462,308.650 185.086,308.000 184.916 C 307.431 184.767,307.200 184.370,307.200 183.541 C 307.200 182.873,306.943 182.276,306.600 182.145 C 306.270 182.018,306.000 181.664,306.000 181.357 C 306.000 181.051,305.730 180.800,305.400 180.800 C 305.070 180.800,304.800 180.530,304.800 180.200 C 304.800 179.867,304.444 179.600,304.000 179.600 C 303.467 179.600,303.200 179.333,303.200 178.800 C 303.200 178.356,302.933 178.000,302.600 178.000 C 302.270 178.000,302.000 177.730,302.000 177.400 C 302.000 177.067,301.644 176.800,301.200 176.800 C 300.756 176.800,300.400 176.533,300.400 176.200 C 300.400 175.800,300.000 175.600,299.200 175.600 C 298.267 175.600,298.000 175.422,298.000 174.800 C 298.000 174.348,297.733 174.000,297.387 174.000 C 297.051 174.000,296.671 173.730,296.545 173.400 C 296.413 173.058,295.817 172.800,295.157 172.800 C 294.395 172.800,294.000 172.595,294.000 172.200 C 294.000 171.773,293.566 171.600,292.496 171.600 C 291.426 171.600,290.849 171.370,290.493 170.800 C 290.148 170.248,289.560 170.000,288.597 170.000 C 287.622 170.000,287.200 169.819,287.200 169.400 C 287.200 168.985,286.783 168.800,285.843 168.800 C 285.005 168.800,284.397 168.570,284.255 168.200 C 284.079 167.740,283.321 167.600,281.013 167.600 L 278.000 167.600 278.000 168.800 C 278.000 169.600,277.800 170.000,277.400 170.000 C 276.947 170.000,276.800 170.489,276.800 172.000 C 276.800 173.511,276.947 174.000,277.400 174.000 C 277.733 174.000,278.000 174.356,278.000 174.800 C 278.000 175.244,277.733 175.600,277.400 175.600 C 276.917 175.600,276.800 176.222,276.800 178.800 C 276.800 181.378,276.917 182.000,277.400 182.000 C 277.893 182.000,278.000 182.706,278.000 185.957 C 278.000 189.106,277.877 189.961,277.400 190.145 C 276.951 190.317,276.800 191.034,276.800 192.987 C 276.800 195.043,276.672 195.600,276.200 195.600 C 275.749 195.600,275.600 196.084,275.600 197.553 C 275.600 199.170,275.462 199.543,274.800 199.716 C 274.360 199.831,274.000 200.176,274.000 200.482 C 274.000 200.883,273.608 200.994,272.600 200.876 C 271.750 200.777,271.200 200.494,271.200 200.156 C 271.200 199.806,270.760 199.600,270.014 199.600 C 269.238 199.600,268.680 199.324,268.400 198.800 C 267.993 198.040,267.562 198.000,259.786 198.000 C 251.867 198.000,251.600 198.026,251.600 198.800 C 251.600 199.333,251.333 199.600,250.800 199.600 C 249.793 199.600,249.618 196.921,250.600 196.545 C 251.004 196.390,251.200 195.755,251.200 194.604 C 251.200 193.230,251.357 192.852,252.000 192.684 C 252.587 192.530,252.800 192.138,252.800 191.209 C 252.800 190.513,253.070 189.673,253.400 189.343 C 253.730 189.013,254.000 188.126,254.000 187.371 C 254.000 186.419,254.183 186.000,254.600 186.000 C 255.051 186.000,255.200 185.516,255.200 184.047 C 255.200 182.430,255.338 182.057,256.000 181.884 C 256.575 181.734,256.800 181.338,256.800 180.480 C 256.800 179.787,257.052 179.189,257.400 179.055 C 257.811 178.898,258.000 178.255,258.000 177.013 C 258.000 175.668,258.155 175.200,258.600 175.200 C 259.389 175.200,259.397 173.214,258.613 172.176 C 258.290 171.749,258.020 171.085,258.013 170.700 C 258.006 170.315,257.730 170.000,257.400 170.000 C 257.070 170.000,256.800 169.730,256.800 169.400 C 256.800 168.981,256.378 168.800,255.400 168.800 C 254.422 168.800,254.000 168.619,254.000 168.200 C 254.000 167.748,253.516 167.600,252.043 167.600 C 250.672 167.600,250.017 167.420,249.855 167.000 C 249.729 166.670,249.254 166.400,248.800 166.400 C 248.346 166.400,247.871 166.670,247.745 167.000 M202.000 168.200 C 202.000 168.530,201.730 168.800,201.400 168.800 C 200.949 168.800,200.800 169.283,200.800 170.751 C 200.800 171.997,200.583 172.882,200.200 173.200 C 199.760 173.565,199.600 174.536,199.600 176.846 C 199.600 179.560,199.490 180.062,198.800 180.493 C 198.266 180.826,198.000 181.426,198.000 182.296 C 198.000 183.188,197.811 183.600,197.400 183.600 C 197.000 183.600,196.800 184.000,196.800 184.800 C 196.800 185.600,196.600 186.000,196.200 186.000 C 195.870 186.000,195.600 186.270,195.600 186.600 C 195.600 186.930,195.240 187.560,194.800 188.000 C 194.360 188.440,194.000 189.070,194.000 189.400 C 194.000 189.730,193.730 190.000,193.400 190.000 C 193.067 190.000,192.800 190.356,192.800 190.800 C 192.800 191.389,192.533 191.600,191.787 191.600 C 191.231 191.600,190.671 191.870,190.545 192.200 C 190.418 192.530,189.974 192.800,189.557 192.800 C 189.141 192.800,188.800 193.070,188.800 193.400 C 188.800 193.804,188.396 194.000,187.563 194.000 C 186.662 194.000,186.268 194.217,186.116 194.800 C 185.874 195.725,183.311 195.951,182.480 195.120 C 181.753 194.393,181.848 188.895,182.600 188.143 C 183.053 187.690,183.200 186.568,183.200 183.571 C 183.200 180.308,183.093 179.600,182.600 179.600 C 182.155 179.600,182.000 179.132,182.000 177.787 C 182.000 176.462,181.820 175.906,181.331 175.718 C 180.350 175.342,179.200 174.091,179.200 173.400 C 179.200 173.070,178.930 172.800,178.600 172.800 C 178.270 172.800,178.000 172.530,178.000 172.200 C 178.000 171.747,177.511 171.600,176.000 171.600 C 174.489 171.600,174.000 171.747,174.000 172.200 C 174.000 172.530,173.730 172.800,173.400 172.800 C 173.070 172.800,172.800 173.070,172.800 173.400 C 172.800 173.730,172.530 174.000,172.200 174.000 C 171.727 174.000,171.600 174.562,171.600 176.656 C 171.600 178.724,171.445 179.425,170.900 179.823 C 169.711 180.692,169.591 200.538,170.770 201.274 C 171.371 201.649,171.600 202.207,171.600 203.296 C 171.600 204.366,171.773 204.800,172.200 204.800 C 172.594 204.800,172.800 205.195,172.800 205.951 C 172.800 206.584,173.059 207.317,173.376 207.580 C 173.693 207.843,174.008 208.450,174.076 208.929 C 174.170 209.587,174.518 209.831,175.500 209.925 C 176.305 210.003,176.800 210.269,176.800 210.625 C 176.800 211.487,186.879 211.464,187.743 210.600 C 188.073 210.270,188.901 210.000,189.584 210.000 C 190.318 210.000,190.919 209.755,191.055 209.400 C 191.182 209.070,191.626 208.800,192.043 208.800 C 192.459 208.800,193.160 208.440,193.600 208.000 C 194.040 207.560,194.580 207.200,194.800 207.200 C 195.020 207.200,195.200 206.930,195.200 206.600 C 195.200 206.270,195.546 206.000,195.969 206.000 C 196.965 206.000,199.200 203.765,199.200 202.769 C 199.200 202.332,199.475 202.000,199.837 202.000 C 200.188 202.000,200.569 201.640,200.684 201.200 C 200.799 200.760,201.142 200.400,201.447 200.400 C 201.751 200.400,202.000 200.130,202.000 199.800 C 202.000 199.470,202.270 199.200,202.600 199.200 C 202.930 199.200,203.200 198.930,203.200 198.600 C 203.200 198.267,203.556 198.000,204.000 198.000 C 204.440 198.000,204.800 197.749,204.800 197.443 C 204.800 197.136,205.070 196.782,205.400 196.655 C 205.730 196.529,206.000 196.059,206.000 195.613 C 206.000 195.166,206.177 194.800,206.392 194.800 C 206.608 194.800,206.904 194.324,207.050 193.742 C 207.196 193.160,207.650 192.350,208.058 191.942 C 208.466 191.534,208.800 190.949,208.800 190.643 C 208.800 190.336,209.070 189.982,209.400 189.855 C 209.842 189.686,210.000 188.987,210.000 187.200 C 210.000 185.413,210.158 184.714,210.600 184.545 C 211.083 184.359,211.200 183.461,211.200 179.957 C 211.200 176.351,211.097 175.600,210.600 175.600 C 210.147 175.600,210.000 175.111,210.000 173.600 C 210.000 172.089,209.853 171.600,209.400 171.600 C 208.996 171.600,208.800 171.196,208.800 170.363 C 208.800 169.462,208.583 169.068,208.000 168.916 C 207.560 168.801,207.200 168.458,207.200 168.153 C 207.200 167.739,206.547 167.600,204.600 167.600 C 202.556 167.600,202.000 167.728,202.000 168.200 M56.800 181.157 C 56.800 187.150,56.898 188.352,57.400 188.545 C 58.223 188.860,59.200 188.433,59.200 187.757 C 59.200 187.387,59.670 187.200,60.600 187.200 C 61.578 187.200,62.000 187.019,62.000 186.600 C 62.000 186.155,62.468 186.000,63.813 186.000 C 65.055 186.000,65.698 186.189,65.855 186.600 C 65.982 186.930,66.426 187.200,66.843 187.200 C 67.419 187.200,67.600 187.490,67.600 188.413 C 67.600 189.121,67.849 189.721,68.200 189.855 C 68.570 189.997,68.800 190.605,68.800 191.443 C 68.800 192.383,68.615 192.800,68.200 192.800 C 67.870 192.800,67.600 193.049,67.600 193.353 C 67.600 193.658,67.240 194.001,66.800 194.116 C 66.360 194.231,66.000 194.612,66.000 194.963 C 66.000 196.032,60.966 195.878,60.684 194.800 C 60.513 194.146,60.138 194.000,58.637 194.000 L 56.800 194.000 56.800 200.000 L 56.800 206.000 52.800 206.000 C 48.932 206.000,47.437 205.409,49.400 204.655 C 50.237 204.334,50.270 198.589,49.438 198.270 C 49.128 198.151,48.754 197.502,48.606 196.827 C 48.380 195.799,48.147 195.600,47.168 195.600 C 46.267 195.600,46.000 195.417,46.000 194.800 C 46.000 194.053,45.733 194.000,42.000 194.000 C 38.267 194.000,38.000 194.053,38.000 194.800 C 38.000 195.244,37.733 195.600,37.400 195.600 C 37.070 195.600,36.800 195.870,36.800 196.200 C 36.800 196.530,36.530 196.800,36.200 196.800 C 35.785 196.800,35.600 197.217,35.600 198.153 C 35.600 199.170,35.401 199.559,34.800 199.716 C 34.182 199.877,34.000 200.262,34.000 201.400 C 34.000 202.538,34.182 202.923,34.800 203.084 C 35.401 203.241,35.600 203.630,35.600 204.647 L 35.600 206.000 30.800 206.000 C 26.267 206.000,26.000 206.044,26.000 206.800 C 26.000 207.244,25.733 207.600,25.400 207.600 C 24.877 207.600,24.800 209.556,24.800 222.800 C 24.800 236.044,24.877 238.000,25.400 238.000 C 25.730 238.000,26.000 238.270,26.000 238.600 C 26.000 238.930,26.261 239.200,26.580 239.200 C 26.899 239.200,27.336 239.515,27.552 239.900 C 27.903 240.528,43.124 240.835,56.600 240.487 C 57.040 240.476,64.188 240.551,72.485 240.655 C 87.329 240.841,87.581 240.831,88.274 240.022 C 88.661 239.570,89.262 239.200,89.609 239.200 C 91.209 239.200,91.200 239.373,91.200 206.920 C 91.200 179.347,91.128 175.600,90.600 175.600 C 90.267 175.600,90.000 175.244,90.000 174.800 C 90.000 174.013,89.733 174.000,73.400 174.000 L 56.800 174.000 56.800 181.157 M150.116 178.800 C 150.001 179.240,149.658 179.600,149.353 179.600 C 149.049 179.600,148.800 179.870,148.800 180.200 C 148.800 180.964,147.358 180.988,147.066 180.229 C 146.946 179.915,146.342 179.582,145.724 179.489 C 144.649 179.327,144.656 179.317,145.900 179.260 C 146.762 179.220,147.200 178.998,147.200 178.600 C 147.200 178.169,147.640 178.000,148.763 178.000 C 150.128 178.000,150.299 178.101,150.116 178.800 M289.820 182.000 C 291.136 182.000,291.600 182.157,291.600 182.600 C 291.600 183.000,292.000 183.200,292.800 183.200 C 293.600 183.200,294.000 183.400,294.000 183.800 C 294.000 184.130,294.154 184.400,294.342 184.400 C 294.845 184.400,296.800 186.293,296.800 186.781 C 296.800 187.011,297.076 187.200,297.413 187.200 C 297.749 187.200,298.129 187.470,298.255 187.800 C 298.382 188.130,298.736 188.400,299.043 188.400 C 299.349 188.400,299.600 188.760,299.600 189.200 C 299.600 189.733,299.333 190.000,298.800 190.000 C 298.267 190.000,298.000 190.267,298.000 190.800 C 298.000 191.422,297.733 191.600,296.800 191.600 C 296.000 191.600,295.600 191.800,295.600 192.200 C 295.600 192.601,295.199 192.800,294.387 192.800 C 293.679 192.800,293.079 193.049,292.945 193.400 C 292.818 193.730,292.285 194.000,291.761 194.000 C 291.236 194.000,290.582 194.360,290.307 194.800 C 290.009 195.277,289.374 195.600,288.733 195.600 C 288.046 195.600,287.593 195.852,287.476 196.300 C 287.375 196.685,287.277 193.310,287.259 188.800 C 287.235 183.054,287.346 180.809,287.632 181.300 C 287.924 181.801,288.547 182.000,289.820 182.000 M156.800 194.800 C 156.800 195.244,156.533 195.600,156.200 195.600 C 155.870 195.600,155.600 195.870,155.600 196.200 C 155.600 196.533,155.244 196.800,154.800 196.800 C 154.356 196.800,154.000 197.067,154.000 197.400 C 154.000 197.754,153.631 198.002,153.100 198.005 C 151.573 198.015,150.400 198.467,150.400 199.047 C 150.400 199.412,149.925 199.600,149.000 199.600 C 148.022 199.600,147.600 199.781,147.600 200.200 C 147.600 200.619,147.178 200.800,146.200 200.800 C 144.648 200.800,144.517 200.626,145.400 199.743 C 145.730 199.413,146.000 198.616,146.000 197.971 C 146.000 196.532,147.255 195.200,148.613 195.200 C 149.169 195.200,149.729 194.930,149.855 194.600 C 150.257 193.554,156.800 193.743,156.800 194.800 M74.900 219.489 C 74.185 219.578,73.015 219.578,72.300 219.489 C 71.585 219.401,72.170 219.328,73.600 219.328 C 75.030 219.328,75.615 219.401,74.900 219.489 " stroke="none" fill="#040404" fill-rule="evenodd"></path></g></svg>